<?xml version="1.0" encoding="utf-8"?>
<!-- Generator: Adobe Illustrator 16.0.0, SVG Export Plug-In . SVG Version: 6.00 Build 0)  -->
<!DOCTYPE svg PUBLIC "-//W3C//DTD SVG 1.1//EN" "http://www.w3.org/Graphics/SVG/1.1/DTD/svg11.dtd">
<svg version="1.1" id="レイヤー_1" xmlns="http://www.w3.org/2000/svg" xmlns:xlink="http://www.w3.org/1999/xlink" x="0px"
	 y="0px" width="51.02px" height="39.69px" viewBox="0 0 51.02 39.69" enable-background="new 0 0 51.02 39.69"
	 xml:space="preserve">
<g>
	<path fill="#E4A440" d="M7.16,21.318L21.494,7.25l3.37,3.238l-5.152,5.746c0,0-1.454,2.774,0.396,4.128
		c1.851,1.354,3.634,0.562,4.757-0.43c1.124-0.99,4.491-4.227,4.491-4.227l10.568,10.371c0,0,1.156,0.959,0,2.113
		c-1.155,1.156-2.179,0.396-2.179,0.396l-6.605-6.803c0,0-1.651-0.596-1.123,0.725c0.925,1.256,7.002,7.135,7.002,7.135
		s1.32,1.322,0.265,2.445c-1.058,1.121-2.512,0-2.512,0l-6.341-6.275c0,0-1.452-0.33-0.858,0.857
		c0.991,1.189,6.275,6.605,6.275,6.605s1.057,0.859,0,2.049c-1.058,1.189-2.048,0-2.048,0L30.61,34.07c0,0,0.198-1.785-0.728-2.775
		c-0.925-0.99-2.905-0.926-2.905-0.926s0.33-0.727-0.662-2.113c-0.99-1.387-2.84-0.859-2.84-0.859s0.066-1.254-0.792-2.244
		c-0.858-0.992-2.907-0.332-2.907-0.332s-0.132-1.387-1.056-2.377c-0.925-0.99-2.312-0.727-3.238-0.133
		c-0.924,0.596-4.029,3.436-4.029,3.436L7.16,21.318z"/>
	<path fill="#E4A440" d="M28.743,32.268c-0.597-0.656-1.465-0.838-1.938-0.406l-4.258,3.869c-0.474,0.432-0.376,1.313,0.221,1.969
		l0,0c0.597,0.658,1.465,0.838,1.94,0.408l4.258-3.869C29.439,33.807,29.341,32.924,28.743,32.268L28.743,32.268z"/>
	<path fill="#E4A440" d="M25.234,29.23c-0.596-0.658-1.503-0.805-2.027-0.33l-4.688,4.262c-0.523,0.475-0.463,1.393,0.133,2.047l0,0
		c0.598,0.658,1.505,0.805,2.028,0.33l4.688-4.262C25.891,30.803,25.832,29.887,25.234,29.23L25.234,29.23z"/>
	<path fill="#E4A440" d="M21.756,26.059c-0.596-0.656-1.503-0.803-2.026-0.328l-4.688,4.262c-0.523,0.473-0.463,1.391,0.133,2.047
		l0,0c0.598,0.658,1.504,0.805,2.026,0.33l4.689-4.262C22.413,27.633,22.354,26.715,21.756,26.059L21.756,26.059z"/>
	<path fill="#E4A440" d="M17.674,23.813c-0.596-0.654-1.438-0.863-1.877-0.465l-3.948,3.59c-0.44,0.4-0.313,1.256,0.284,1.912l0,0
		c0.596,0.656,1.437,0.863,1.876,0.465l3.949-3.588C18.397,25.326,18.271,24.471,17.674,23.813L17.674,23.813z"/>
	<path fill="#E4A440" d="M29.817,7.382l-8.719,8.588c0,0-1.586,2.179-0.331,3.368c1.255,1.189,3.032,0,3.032,0l5.467-5.417
		l11.517,11.163l3.039-3.531L29.817,7.382z"/>
	<path fill="#E4A440" d="M30.25,4.409c0,0-1.058,0.926,0,1.982c1.057,1.058,14.004,13.972,14.004,13.972s1.52,0.76,2.181,0
		c0.659-0.761,2.534-2.805,2.534-2.805s0.767-1.324,0.124-2.001c-0.647-0.68-13.954-13.855-13.954-13.855s-1.388-0.792-2.246,0
		C32.034,2.495,30.25,4.409,30.25,4.409z"/>
	<path fill="#E4A440" d="M4.399,20.786c0,0,0.917,1.063,1.982,0.016C7.446,19.753,20.459,6.904,20.459,6.904
		s0.771-1.513,0.016-2.179c-0.754-0.667-2.786-2.557-2.786-2.557s-1.317-0.778-1.999-0.139C15.005,2.672,1.729,15.877,1.729,15.877
		s-0.804,1.381-0.018,2.246C2.497,18.988,4.399,20.786,4.399,20.786z"/>
	<path fill="#E4A440" d="M26.993,37.355l2.272-2.031c0,0,1.047,1.139,0.156,2.031C28.529,38.248,26.993,37.355,26.993,37.355z"/>
</g>
</svg>
