<svg xmlns="http://www.w3.org/2000/svg" xmlns:xlink="http://www.w3.org/1999/xlink" width="13" height="13" viewBox="0 0 13 13">
  <defs>
    <clipPath id="clip-path">
      <rect width="13" height="13" fill="none"/>
    </clipPath>
  </defs>
  <g id="リピートグリッド_10" data-name="リピートグリッド 10" clip-path="url(#clip-path)">
    <g transform="translate(-1364 -1109)">
      <circle id="楕円形_3" data-name="楕円形 3" cx="1.5" cy="1.5" r="1.5" transform="translate(1364 1109)" fill="#404040"/>
    </g>
    <g transform="translate(-1359 -1109)">
      <circle id="楕円形_3-2" data-name="楕円形 3" cx="1.5" cy="1.5" r="1.5" transform="translate(1364 1109)" fill="#404040"/>
    </g>
    <g transform="translate(-1354 -1109)">
      <circle id="楕円形_3-3" data-name="楕円形 3" cx="1.5" cy="1.5" r="1.5" transform="translate(1364 1109)" fill="#404040"/>
    </g>
    <g transform="translate(-1364 -1104)">
      <circle id="楕円形_3-4" data-name="楕円形 3" cx="1.5" cy="1.5" r="1.5" transform="translate(1364 1109)" fill="#404040"/>
    </g>
    <g transform="translate(-1359 -1104)">
      <circle id="楕円形_3-5" data-name="楕円形 3" cx="1.5" cy="1.5" r="1.5" transform="translate(1364 1109)" fill="#404040"/>
    </g>
    <g transform="translate(-1354 -1104)">
      <circle id="楕円形_3-6" data-name="楕円形 3" cx="1.5" cy="1.5" r="1.5" transform="translate(1364 1109)" fill="#404040"/>
    </g>
    <g transform="translate(-1364 -1099)">
      <circle id="楕円形_3-7" data-name="楕円形 3" cx="1.5" cy="1.5" r="1.5" transform="translate(1364 1109)" fill="#404040"/>
    </g>
    <g transform="translate(-1359 -1099)">
      <circle id="楕円形_3-8" data-name="楕円形 3" cx="1.5" cy="1.5" r="1.5" transform="translate(1364 1109)" fill="#404040"/>
    </g>
    <g transform="translate(-1354 -1099)">
      <circle id="楕円形_3-9" data-name="楕円形 3" cx="1.5" cy="1.5" r="1.5" transform="translate(1364 1109)" fill="#404040"/>
    </g>
  </g>
</svg>
