<?xml version="1.0" encoding="utf-8"?>
<!-- Generator: Adobe Illustrator 25.2.3, SVG Export Plug-In . SVG Version: 6.00 Build 0)  -->
<svg version="1.1" id="レイヤー_1" xmlns="http://www.w3.org/2000/svg" xmlns:xlink="http://www.w3.org/1999/xlink" x="0px"
	 y="0px" viewBox="0 0 220 212.9" style="enable-background:new 0 0 220 212.9;" xml:space="preserve">
<style type="text/css">
	.st0{enable-background:new    ;}
	.st1{fill:#FFFFFF;}
</style>
<g id="グループ_14" transform="translate(-192 -807.439)">
	<g class="st0">
		<path class="st1" d="M227.4,928.2h7.1c4.8,0,7.2,1.9,7.2,5.8c0,2-0.7,3.5-2.1,4.6c-1.3,0.9-3,1.4-5.3,1.4h-3.4v8.5h-3.5V928.2z
			 M230.9,930.8v6.4h3.3c2.6,0,4-1.1,4-3.3c0-2.1-1.3-3.2-3.8-3.2H230.9z"/>
		<path class="st1" d="M244.2,937.7c0.7-2.6,2.7-3.9,5.9-3.9c3.7,0,5.5,1.6,5.5,4.7v5.7c0,1.4,0.1,2.8,0.2,4.2h-3
			c-0.1-0.5-0.2-1.2-0.2-1.9c-1,1.5-2.5,2.2-4.5,2.2c-1.4,0-2.5-0.4-3.3-1.3c-0.7-0.8-1.1-1.7-1.1-2.9c0-2.5,1.6-4.1,4.7-4.7
			c1.2-0.2,2.5-0.4,4.1-0.4v-0.8c0-0.9-0.2-1.6-0.7-2c-0.4-0.3-1-0.5-1.8-0.5c-0.7,0-1.4,0.2-1.9,0.7c-0.4,0.4-0.7,1-0.9,1.8
			L244.2,937.7z M252.4,941.4c-1.1,0-2.2,0.2-3.3,0.4c-1.6,0.4-2.3,1.2-2.3,2.4c0,1.4,0.8,2.2,2.3,2.2c1.4,0,2.5-0.8,3.3-2.3V941.4z
			"/>
		<path class="st1" d="M267.2,933.8l-0.2,3.1c-1.8,0-3.2,1.2-4,3.6v7.9h-3.2v-14.3h3.1v3.5C263.7,935.1,265.2,933.8,267.2,933.8z"/>
		<path class="st1" d="M273.8,929.5v4.7h3.2v2.4h-3.2v7.8c0,1.4,0.6,2.1,1.8,2.1c0.6,0,1.2-0.1,1.7-0.2l-0.1,2.3
			c-0.7,0.1-1.6,0.2-2.6,0.2c-1.4,0-2.5-0.3-3.1-1c-0.6-0.6-0.9-1.5-0.9-2.8v-8.4h-2.1v-2.4h2.1v-3.9L273.8,929.5z"/>
		<path class="st1" d="M283.2,928.2v3.4h-3.5v-3.4H283.2z M283.1,934.1v14.3h-3.3v-14.3H283.1z"/>
		<path class="st1" d="M298.6,938.4l-3.2,0.7c-0.3-1.9-1.1-2.9-2.5-2.9c-2.1,0-3.2,1.7-3.2,5.1c0,3.4,1.1,5.1,3.2,5.1
			c1.5,0,2.4-1,2.7-3l3,0.8c-0.4,1.6-1.1,2.8-2.2,3.5c-1,0.7-2.2,1-3.6,1c-2.2,0-3.8-0.7-5-2.2c-1-1.3-1.5-3-1.5-5.2
			c0-2.5,0.7-4.4,2-5.8c1.1-1.2,2.6-1.8,4.5-1.8c1.6,0,3,0.4,4,1.3C297.7,935.9,298.3,937,298.6,938.4z"/>
		<path class="st1" d="M305,928.2v3.4h-3.5v-3.4H305z M304.8,934.1v14.3h-3.3v-14.3H304.8z"/>
		<path class="st1" d="M312.2,934.1v2.1c1-1.6,2.3-2.4,4-2.4c1.7,0,3.1,0.7,4.1,2.1c0.9,1.3,1.4,3.1,1.4,5.3c0,2.5-0.6,4.5-1.9,5.9
			c-1,1.1-2.3,1.7-3.7,1.7c-1.6,0-2.9-0.8-3.7-2.3v7H309v-19.3H312.2z M312.3,938.8v5.1c0.7,1.6,1.6,2.4,2.9,2.4
			c1,0,1.7-0.5,2.3-1.4c0.5-0.9,0.8-2.1,0.8-3.6c0-1.7-0.3-3-1-3.9c-0.5-0.7-1.2-1-2-1C314,936.4,313,937.2,312.3,938.8z"/>
		<path class="st1" d="M324.5,937.7c0.7-2.6,2.7-3.9,5.9-3.9c3.7,0,5.5,1.6,5.5,4.7v5.7c0,1.4,0.1,2.8,0.2,4.2h-3
			c-0.1-0.5-0.2-1.2-0.2-1.9c-1,1.5-2.5,2.2-4.5,2.2c-1.4,0-2.5-0.4-3.3-1.3c-0.7-0.8-1.1-1.7-1.1-2.9c0-2.5,1.6-4.1,4.7-4.7
			c1.2-0.2,2.5-0.4,4.1-0.4v-0.8c0-0.9-0.2-1.6-0.7-2c-0.4-0.3-1-0.5-1.8-0.5c-0.7,0-1.4,0.2-1.9,0.7c-0.4,0.4-0.7,1-0.9,1.8
			L324.5,937.7z M332.8,941.4c-1.1,0-2.2,0.2-3.3,0.4c-1.6,0.4-2.3,1.2-2.3,2.4c0,1.4,0.8,2.2,2.3,2.2c1.4,0,2.5-0.8,3.3-2.3V941.4z
			"/>
		<path class="st1" d="M343.3,934.1v2.5c0.6-0.9,1.4-1.6,2.2-2.1c0.8-0.4,1.6-0.7,2.5-0.7c1.3,0,2.3,0.4,3.1,1.3c0.7,0.8,1,1.8,1,3
			v10.3h-3.4V939c0-1.6-0.7-2.4-2-2.4c-0.6,0-1.2,0.2-1.9,0.7c-0.6,0.4-1,1-1.4,1.7v9.4h-3.3v-14.3H343.3z"/>
		<path class="st1" d="M360.1,929.5v4.7h3.2v2.4h-3.2v7.8c0,1.4,0.6,2.1,1.8,2.1c0.6,0,1.2-0.1,1.7-0.2l-0.1,2.3
			c-0.7,0.1-1.6,0.2-2.6,0.2c-1.4,0-2.5-0.3-3.1-1c-0.6-0.6-0.9-1.5-0.9-2.8v-8.4h-2.1v-2.4h2.1v-3.9L360.1,929.5z"/>
		<path class="st1" d="M376.3,937.4l-3.1,0.9c-0.4-1.5-1.2-2.3-2.5-2.3c-0.7,0-1.3,0.2-1.7,0.5c-0.3,0.3-0.5,0.6-0.5,1
			c0,0.6,0.2,1,0.6,1.3c0.4,0.3,1,0.5,2,0.8l1.2,0.3c1.7,0.5,2.9,1,3.6,1.8c0.6,0.6,0.9,1.5,0.9,2.6c0,1.4-0.5,2.5-1.6,3.3
			c-1,0.7-2.4,1.1-4.1,1.1c-3.1,0-5.1-1.2-6-3.6l3-1.1c0.5,1.6,1.5,2.4,3,2.4c1.7,0,2.6-0.6,2.6-1.8c0-0.6-0.2-1.1-0.6-1.3
			c-0.3-0.2-1.1-0.5-2.1-0.8l-1.2-0.3c-1.7-0.4-2.8-1-3.4-1.7c-0.5-0.6-0.8-1.5-0.8-2.6c0-1.3,0.5-2.3,1.6-3c1-0.7,2.2-1,3.8-1
			C373.7,933.8,375.5,935,376.3,937.4z"/>
	</g>
	<g class="st0">
		<path class="st1" d="M202.9,979.4l-6.9,0.1c-0.3,0-0.5,0-0.5-0.1c-0.1-0.1-0.1-0.2-0.1-0.5v-3.8c0-0.3,0-0.5,0.1-0.5
			c0.1-0.1,0.2-0.1,0.5-0.1l6.9,0.1h10c0.4-0.6,0.8-1.3,1.2-2.1c0.1-0.1,0.2-0.5,0.4-0.9c0.1-0.3,0.2-0.5,0.3-0.7
			c-4,0.2-7.1,0.4-9.3,0.4c-1.7,0.1-2.8,0.2-3.2,0.4c-0.4,0.2-0.6,0.3-0.9,0.3c-0.2,0-0.5-0.3-0.7-0.8c-0.3-1.4-0.6-3-0.8-4.7
			c1.4,0.1,2.7,0.2,3.9,0.2c0.6,0,1.3,0,1.9-0.1h2c1.6-2.1,2.9-4.1,3.9-6c0.5-0.9,0.8-1.8,1.1-2.6c2.1,0.4,3.8,0.9,5.2,1.3
			c0.5,0.2,0.8,0.4,0.8,0.8c0,0.2-0.2,0.5-0.7,0.9c-0.5,0.4-0.9,1-1.3,1.7c-0.8,1.3-1.7,2.6-2.6,3.9c4.7-0.1,9.3-0.3,14-0.6
			c-1-0.9-2.1-1.7-3.4-2.7c-0.2-0.1-0.3-0.3-0.3-0.4c0-0.1,0.2-0.3,0.6-0.5l2.7-1.6c0.3-0.2,0.6-0.3,0.7-0.3c0.2,0,0.4,0.1,0.6,0.3
			c4,2.8,7.6,5.9,10.9,9.4c0.2,0.2,0.2,0.3,0.2,0.5c0,0.1-0.2,0.3-0.6,0.6l-3,2c-0.3,0.2-0.6,0.3-0.7,0.3c-0.1,0-0.3-0.1-0.5-0.3
			c-0.2-0.3-0.6-0.7-1-1.2c-0.9-1-1.6-1.8-2-2.2c-3.9,0.3-7.7,0.6-11.6,0.8c-0.1,0.2-0.4,0.9-0.9,2.2l-0.8,1.8h17.3l6.9-0.1
			c0.3,0,0.5,0,0.6,0.1c0.1,0.1,0.1,0.2,0.1,0.5v3.8c0,0.3,0,0.5-0.1,0.5c-0.1,0.1-0.3,0.1-0.5,0.1l-6.9-0.1h-6.8
			c3.8,3.6,9.1,6.2,15.8,7.9c-0.8,1-1.5,2.2-2,3.6c-0.3,0.9-0.7,1.4-1,1.4c-0.2,0-0.6-0.1-1.3-0.4c-7.9-2.9-13.9-7.1-17.9-12.5h-7
			c-4,5.3-9.9,9.4-17.7,12.4c-0.8,0.2-1.2,0.4-1.3,0.4c-0.3,0-0.6-0.4-1.1-1.3c-0.5-1.1-1.2-2.1-2-2.9c6.4-2,11.6-4.8,15.4-8.6
			H202.9z M201.9,991c6.5-1.4,11.6-3.8,15.3-7c1.1-0.9,1.8-1.7,2.3-2.5c1.7,1,3,1.9,3.9,2.6c0.4,0.4,0.6,0.7,0.6,1
			c0,0.3-0.3,0.6-0.9,0.7c-0.5,0.1-1.2,0.5-1.9,1.1c-4.5,3.6-9.5,6.1-14.8,7.5c-0.6,0.1-0.9,0.2-1.1,0.2c-0.3,0-0.7-0.4-1.1-1.1
			C203.6,992.6,202.8,991.8,201.9,991z M202.5,997.4c8.9-1.3,16.1-4.1,21.6-8.4c0.8-0.6,1.5-1.3,2.1-2.2c1.3,0.7,2.5,1.6,3.8,2.6
			c0.4,0.3,0.6,0.6,0.6,0.9c0,0.4-0.3,0.7-0.8,0.8c-0.7,0.2-1.3,0.6-2,1.1c-5.2,4.5-12.3,7.6-21.3,9.3c-0.5,0.1-0.8,0.2-1,0.2
			c-0.4,0-0.8-0.4-1.2-1.3C203.7,999,203.1,998,202.5,997.4z M202.5,1004.2c6.5-0.6,12.1-1.8,16.7-3.4c4.1-1.5,7.9-3.5,11.4-6
			c1.2-0.9,2.1-1.8,2.7-2.7c1.6,0.9,3,1.8,4.2,2.8c0.4,0.3,0.6,0.6,0.6,0.9c0,0.4-0.3,0.6-0.9,0.7c-0.5,0.1-1.3,0.5-2.3,1.3
			c-4.1,3.3-8.6,5.8-13.5,7.6c-4.2,1.5-9.1,2.6-14.9,3.4c-0.4,0.1-0.8,0.1-0.9,0.1c-0.4,0-0.6-0.1-0.8-0.3c-0.1-0.2-0.3-0.5-0.5-1.1
			C203.8,1006,203.2,1005,202.5,1004.2z"/>
		<path class="st1" d="M269.1,974.5h-5.4c-0.4,6.3-1.1,11.6-2.3,16c-1.6,6.3-4,11.6-7.4,15.9c-0.5,0.6-0.9,0.9-1,0.9
			c-0.2,0-0.5-0.3-0.9-0.9c-1-1.5-2.1-2.8-3.5-3.9c3.5-4.1,5.9-8.8,7.3-14c1.1-3.9,1.8-8.6,2-13.9h-0.7l-6.6,0.1
			c-0.3,0-0.5,0-0.5-0.1c-0.1-0.1-0.1-0.2-0.1-0.5v-4.1c0-0.3,0-0.4,0.1-0.5c0.1,0,0.2-0.1,0.5-0.1l6.6,0.1h0.9
			c0-0.7,0.1-1.8,0.1-3.4c0-2.7-0.1-5.3-0.4-7.8c2,0.1,4,0.2,5.9,0.3c0.6,0.1,0.8,0.3,0.8,0.6c0,0.1-0.1,0.4-0.2,0.8
			c-0.1,0.4-0.2,0.6-0.2,0.8c-0.2,0.8-0.3,2.6-0.3,5.5c0,1.4,0,2.5-0.1,3.2h3.6l6.7-0.1c0.4,0,0.7,0.2,0.7,0.6
			c-0.1,1.2-0.1,3-0.1,5.2c-0.1,11.3-0.7,19.8-1.6,25.6c-0.4,2.3-1.2,3.9-2.4,4.9c-1.1,0.9-2.6,1.3-4.5,1.3c-1.3,0-2.3,0-3-0.1
			c-0.8-0.1-1.2-0.2-1.3-0.4c-0.1-0.2-0.2-0.7-0.3-1.5c-0.2-1.4-0.5-2.7-1-3.9c1.5,0.3,3,0.4,4.6,0.4c0.9,0,1.5-0.3,1.8-0.8
			c0.3-0.5,0.6-1.4,0.8-2.7C268.5,993.1,268.9,985.3,269.1,974.5z M298,1005.9c0,0.3,0,0.5-0.1,0.6c-0.1,0.1-0.2,0.1-0.5,0.1h-4.6
			c-0.3,0-0.4,0-0.5-0.1c-0.1-0.1-0.1-0.3-0.1-0.5v-3.7h-8.1v4.2c0,0.3,0,0.5-0.1,0.6c-0.1,0.1-0.3,0.1-0.6,0.1h-4.5
			c-0.3,0-0.5,0-0.6-0.1c-0.1-0.1-0.1-0.3-0.1-0.5l0.1-17.8v-10l-0.1-13.5c0-0.3,0-0.5,0.1-0.5c0.1-0.1,0.3-0.1,0.5-0.1l5.7,0.1h7
			l5.7-0.1c0.3,0,0.5,0,0.5,0.1c0.1,0.1,0.1,0.2,0.1,0.5l-0.1,11.9v11.4L298,1005.9z M292.2,969.9h-8.1v27h8.1V969.9z"/>
		<path class="st1" d="M311.9,1008.8h-4.8c-0.3,0-0.4,0-0.5-0.1c-0.1-0.1-0.1-0.2-0.1-0.5l0.1-21.1v-10.9l-0.1-15.1
			c0-0.3,0-0.5,0.1-0.5c0.1-0.1,0.2-0.1,0.5-0.1l7.3,0.1h30l7.3-0.1c0.3,0,0.5,0,0.5,0.1c0.1,0.1,0.1,0.2,0.1,0.5l-0.1,13.2V987
			l0.1,21.1c0,0.3,0,0.5-0.1,0.5c-0.1,0.1-0.2,0.1-0.5,0.1h-4.7c-0.3,0-0.5,0-0.5-0.1c-0.1-0.1-0.1-0.2-0.1-0.5v-2.5h-34v2.5
			c0,0.3,0,0.5-0.1,0.5C312.3,1008.8,312.2,1008.8,311.9,1008.8z M312.5,965.7v34.7h34v-34.7H312.5z M322.6,978.6l-7.2,0.1
			c-0.3,0-0.5,0-0.5-0.1c-0.1-0.1-0.1-0.2-0.1-0.5v-3.7c0-0.3,0-0.5,0.1-0.5c0.1-0.1,0.2-0.1,0.5-0.1l7.2,0.1h10.1v-0.4
			c0-2.7-0.1-4.7-0.4-6.2c1.8,0.1,3.6,0.3,5.7,0.5c0.6,0.1,0.9,0.3,0.9,0.6c0,0.2-0.1,0.6-0.4,1.2c-0.2,0.5-0.3,1.8-0.3,3.7v0.7
			l5.9-0.1c0.3,0,0.5,0,0.5,0.1c0.1,0.1,0.1,0.2,0.1,0.5v3.7c0,0.3,0,0.5-0.1,0.5c-0.1,0.1-0.2,0.1-0.5,0.1c-0.1,0-0.3,0-0.8,0
			c-1.5,0-3.2-0.1-5.1-0.1v6.9l0.2,7.8c0,2-0.6,3.3-1.8,4.2c-1.1,0.7-3.7,1-7.6,1c-0.9,0-1.5-0.1-1.6-0.3c-0.2-0.1-0.3-0.6-0.5-1.4
			c-0.3-1.5-0.7-2.8-1.2-3.7c1.7,0.2,3.3,0.2,5,0.2c0.8,0,1.4-0.1,1.7-0.4c0.2-0.3,0.4-0.7,0.4-1.3v-13.1H322.6z M323.2,980.9
			c1.8,1.7,3.6,4,5.5,6.9c0.1,0.2,0.2,0.3,0.2,0.4c0,0.2-0.2,0.4-0.6,0.7l-3,1.9c-0.3,0.2-0.6,0.3-0.7,0.3c-0.1,0-0.3-0.1-0.5-0.4
			c-1.5-2.8-3.3-5.2-5.3-7.4c-0.1-0.2-0.2-0.3-0.2-0.4c0-0.1,0.2-0.3,0.6-0.5l3-1.7c0.3-0.2,0.5-0.2,0.7-0.2
			C322.8,980.5,323,980.7,323.2,980.9z"/>
		<path class="st1" d="M382.2,975.2l-7.5,0.1c-0.3,0-0.5,0-0.5-0.1c-0.1-0.1-0.1-0.2-0.1-0.5v-4.2c0-0.3,0-0.5,0.1-0.6
			c0.1,0,0.2-0.1,0.5-0.1l7.5,0.1h5.6v-3.6c0-3-0.1-5.6-0.4-7.8c2.3,0.1,4.2,0.2,5.8,0.4c0.6,0,0.9,0.2,0.9,0.6
			c0,0.2-0.1,0.6-0.4,1.2c-0.2,0.5-0.3,2.4-0.3,5.6v3.7h7.8l7.6-0.1c0.3,0,0.4,0,0.5,0.1c0,0.1,0.1,0.3,0.1,0.5v4.2
			c0,0.4-0.2,0.6-0.5,0.6l-7.6-0.1h-5.7c2,4,4.3,7.5,6.8,10.4c2.2,2.7,5.1,5.5,8.5,8.4c-1.1,1.1-2,2.4-2.7,3.7
			c-0.4,0.8-0.7,1.2-0.9,1.2c-0.2,0-0.6-0.3-1.2-0.9c-3.3-3.2-5.9-6.4-8.1-9.6c-1.7-2.6-3.3-5.6-4.8-8.9c0,3.7,0,8.4,0.1,14.1h1.3
			l6-0.1c0.3,0,0.5,0,0.5,0.1c0.1,0.1,0.1,0.2,0.1,0.5v4c0,0.3,0,0.5-0.1,0.6c-0.1,0.1-0.2,0.1-0.5,0.1l-6-0.1h-1.2
			c0,2.2,0.1,4.4,0.1,6.8c0,1.7,0.1,2.6,0.1,2.6c0,0.3,0,0.5-0.1,0.5c-0.1,0.1-0.2,0.1-0.5,0.1h-4.7c-0.3,0-0.5,0-0.6-0.1
			c-0.1-0.1-0.1-0.2-0.1-0.5c0-0.2,0-1.3,0.1-3.3c0.1-2.3,0.1-4.3,0.1-6.1h-1l-6,0.1c-0.3,0-0.5,0-0.5-0.1c-0.1-0.1-0.1-0.3-0.1-0.5
			v-4c0-0.3,0-0.4,0.1-0.5c0.1-0.1,0.2-0.1,0.5-0.1l6,0.1h1c0.1-4.3,0.2-9,0.2-14.1c-3.1,7.4-7.3,13.5-12.5,18.4
			c-0.6,0.6-1,0.8-1.2,0.8c-0.2,0-0.5-0.3-0.9-1c-0.6-1.1-1.4-2.2-2.5-3.2v5.3l0.1,8.4c0,0.3,0,0.5-0.1,0.5
			c-0.1,0.1-0.2,0.1-0.5,0.1h-4.7c-0.4,0-0.5-0.2-0.5-0.6l0.1-8.4v-12.5c0-2.7,0-4.7,0.1-6.2c-1.4,1.8-2.4,3.1-3.2,4
			c-0.4,0.5-0.7,0.7-1,0.7c-0.2,0-0.4-0.3-0.6-1c-0.4-1.9-1-3.4-1.9-4.7c4.9-5.3,8.3-11.3,10.4-17.9c0.5-1.6,0.8-2.9,0.8-3.9
			c2,0.5,3.8,1.1,5.3,1.7c0.6,0.3,0.9,0.5,0.9,0.8c0,0.3-0.2,0.6-0.6,1c-0.3,0.3-0.7,1.1-1.1,2.2c-1.2,3.1-2.4,5.7-3.6,8v22.3
			c6.3-5.3,11.1-11.6,14.4-19.1H382.2z"/>
	</g>
	<g id="participants-2" transform="translate(242.222 805.78)">
		<path id="パス_13" class="st1" d="M20.8,89.4c0,0-2.6-17.8,11.3-21.6s16-6.5,16.3-11.2s-2.2-6.6-4.6-11.4s-6-12.2-6-18.9
			S40.8,1.7,59.3,1.7s21.2,16.8,21.2,24.6s-4.1,16-5.9,20c-1.8,4-10.4,11.8,4.3,18.9c15.3,4.4,17.7,9.5,18.8,14.2
			c0.7,3.3,0.9,6.7,0.6,10L20.8,89.4L20.8,89.4z"/>
		<g id="グループ_7" transform="translate(73.191 15.785)">
			<path id="パス_14" class="st1" d="M44.3,65.3c-0.9-4-2.9-8.2-15.8-11.9c-12.4-6-5.1-12.5-3.6-15.9s5-10.3,5-16.8S27.6,0,12,0
				c-1.2,0-2.4,0.1-3.6,0.3c0.9,3.3,1.4,6.8,1.4,10.2c0,7.6-3.5,15.3-5.6,19.9c-0.2,0.4-0.4,0.8-0.5,1.2c-0.4,0.9-0.9,1.7-1.5,2.6
				C1.3,35.5,0.5,37,0,38.5c1.4,2.3,2.6,3.9,2.8,6.3c1.2,0.9,2.5,1.7,3.8,2.3c14.8,4.3,18.8,9.5,20.3,16c0.7,3.5,0.9,7,0.6,10.6
				h17.2C45,70.9,44.8,68,44.3,65.3z"/>
		</g>
		<g id="グループ_8" transform="translate(0.779 15.785)">
			<path id="パス_15" class="st1" d="M0.6,65.3c0.9-4,2.9-8.2,15.8-11.9c12.4-6,5.1-12.5,3.6-15.9s-5-10.3-5-16.8S17.3,0,32.8,0
				c1.2,0,2.4,0.1,3.6,0.3C35.4,3.6,35,7.1,35,10.5c0,7.6,3.5,15.3,5.6,19.9c0.2,0.4,0.4,0.8,0.5,1.2c0.4,0.9,0.9,1.7,1.5,2.6
				c0.9,1.4,1.7,2.8,2.2,4.4c-1.4,2.3-2.6,3.9-2.8,6.3c-1.2,0.9-2.5,1.7-3.8,2.3c-14.8,4.3-18.8,9.5-20.3,16
				c-0.7,3.5-0.9,7.1-0.6,10.6H0.1C-0.1,70.9,0,68,0.6,65.3z"/>
		</g>
	</g>
</g>
</svg>
