<?xml version="1.0" encoding="utf-8"?>
<!-- Generator: Adobe Illustrator 25.2.1, SVG Export Plug-In . SVG Version: 6.00 Build 0)  -->
<svg version="1.1" id="レイヤー_1" xmlns="http://www.w3.org/2000/svg" xmlns:xlink="http://www.w3.org/1999/xlink" x="0px"
	 y="0px" viewBox="0 0 32.5 39.5" style="enable-background:new 0 0 32.5 39.5;" xml:space="preserve">
<style type="text/css">
	.st0{opacity:0.75;}
	.st1{fill:#FFFFFF;}
</style>
<g id="レイヤー_2_1_" class="st0">
	<g id="レイヤー_1_1_">
		<path id="パス_57" class="st1" d="M11.9,0h11.9c9.1,0,8.7,7.7,8.7,7.7v23.6c0,8-7.5,8.3-7.5,8.3H7.2c-7,0-7.2-6.8-7.2-6.8V12
			L11.9,0z M12.6,2.4v5.8c0,0-0.7,4-4.4,4H2.4v20.5c0,0,0.3,4.1,3.8,4.1h18.5c0,0,5.1,0.9,5.1-4.1V7.1c0,0,0.2-4.7-5.1-4.7H12.6z"/>
		<path id="パス_58" class="st1" d="M8,19.5c0,0,4.3-0.4,4.3,2.3s-3.7,2.3-3.7,2.3v1.8c0,0.5-0.1,0.8-0.9,0.8s-0.8-1-0.8-1v-5.4
			C6.9,19.4,8,19.5,8,19.5z M8.5,20.9v1.9c0,0,2.2,0.2,2.2-0.9S8.4,20.9,8.5,20.9L8.5,20.9z"/>
		<path id="パス_59" class="st1" d="M14.4,19.5h1.9c0.9,0,2.6,0.3,2.6,3.6c0.1,1.5-0.7,2.9-2,3.6h-2.5c-0.5,0-0.8-0.7-0.8-0.7
			v-6.3C13.6,19.3,14.4,19.5,14.4,19.5z M15.1,20.9v4.3c1.1,0.2,2.1-0.6,2.3-1.7c0-0.2,0-0.3,0-0.5c0.1-1.1-0.7-2.1-1.8-2.2
			C15.4,20.9,15.2,20.9,15.1,20.9z"/>
		<path id="パス_60" class="st1" d="M20.2,20.2v5.6c0,0,0.2,0.9,0.7,0.9c0.5,0.1,0.9-0.3,0.9-0.7c0-0.1,0-0.1,0-0.2V24h1.7
			c0.5,0.1,0.9-0.3,0.9-0.7c0,0,0-0.1,0-0.1c0-0.6-0.5-0.5-0.9-0.6s-1.7-0.1-1.7-0.1v-1.6h2.3c0,0,1,0,1-0.7s-0.4-0.8-0.9-0.8h-2.8
			C21.4,19.4,20.2,19.6,20.2,20.2z"/>
	</g>
</g>
</svg>
