<?xml version="1.0" encoding="utf-8"?>
<!-- Generator: Adobe Illustrator 24.2.3, SVG Export Plug-In . SVG Version: 6.00 Build 0)  -->
<svg version="1.1" id="_x32_" xmlns="http://www.w3.org/2000/svg" xmlns:xlink="http://www.w3.org/1999/xlink" x="0px" y="0px"
	 viewBox="0 0 512 512" style="enable-background:new 0 0 512 512;" xml:space="preserve">
<style type="text/css">
	.st0{fill:#ECA83E;}
</style>
<g>
	<path class="st0" d="M310.8,79.3c-10.6,0-27.6,18-34.9,25.4c-6.4,6.4-56.6,56.4-184,56.4v149c127.4,0,177.6,50,184,56.4
		c7.3,7.3,24.4,25.3,34.9,25.3s19.1-8.6,19.1-19.1V98.4C330,87.8,321.4,79.3,310.8,79.3z"/>
	<path class="st0" d="M74.5,161C33.4,161,0,194.3,0,235.5S33.4,310,74.5,310V161z"/>
	<path class="st0" d="M345.4,207.5v55.9c15.4,0,28-12.5,28-28S360.8,207.5,345.4,207.5z"/>
	<rect x="436.7" y="226.2" class="st0" width="75.3" height="14.6"/>
	<polygon class="st0" points="494.1,127.7 486.3,115.4 417.8,159 425.6,171.4 	"/>
	<polygon class="st0" points="417.8,314.1 486.3,357.7 494.1,345.4 425.6,301.8 	"/>
</g>
</svg>
