<?xml version="1.0" encoding="utf-8"?>
<!-- Generator: Adobe Illustrator 16.0.0, SVG Export Plug-In . SVG Version: 6.00 Build 0)  -->
<!DOCTYPE svg PUBLIC "-//W3C//DTD SVG 1.1//EN" "http://www.w3.org/Graphics/SVG/1.1/DTD/svg11.dtd">
<svg version="1.1" id="レイヤー_1" xmlns="http://www.w3.org/2000/svg" xmlns:xlink="http://www.w3.org/1999/xlink" x="0px"
	 y="0px" width="180px" height="120px" viewBox="0 0 180 120" enable-background="new 0 0 180 120" xml:space="preserve">
<g>
	<g id="レイヤー_2">
		<g id="Ebene_1">
			<path fill="none" stroke="#444D52" stroke-miterlimit="10" d="M71.333,27.5V16.563h-3.974v-4.525h3.974V8.589
				c0-3.923,2.337-6.089,5.912-6.089c1.713,0,3.504,0.306,3.504,0.306v3.851h-1.973c-1.943,0-2.552,1.207-2.552,2.445v2.935h4.342
				l-0.694,4.525h-3.647V27.5H71.333z"/>
		</g>
	</g>
</g>
<g>
	<path fill="#444D52" stroke="#FFFFFF" stroke-width="1.4" stroke-miterlimit="10" d="M104.99,4.759c3.337,0,3.729,0.01,5.045,0.068
		c1.219,0.058,1.883,0.263,2.322,0.429c0.584,0.224,0.994,0.498,1.436,0.937c0.438,0.438,0.711,0.849,0.936,1.435
		c0.176,0.439,0.371,1.103,0.434,2.322c0.061,1.318,0.064,1.708,0.064,5.045s-0.01,3.729-0.064,5.044
		c-0.063,1.219-0.268,1.882-0.434,2.322c-0.225,0.586-0.498,0.995-0.936,1.435c-0.441,0.439-0.85,0.712-1.436,0.937
		c-0.439,0.177-1.104,0.371-2.322,0.429c-1.316,0.061-1.708,0.068-5.045,0.068c-3.338,0-3.729-0.007-5.045-0.068
		c-1.221-0.059-1.883-0.263-2.322-0.429c-0.585-0.224-0.996-0.497-1.436-0.937c-0.438-0.439-0.711-0.848-0.938-1.435
		c-0.177-0.44-0.371-1.103-0.433-2.322c-0.06-1.316-0.065-1.707-0.065-5.044s0.013-3.727,0.065-5.045
		c0.063-1.219,0.268-1.883,0.433-2.322c0.228-0.585,0.498-0.995,0.938-1.435c0.438-0.44,0.851-0.712,1.436-0.937
		c0.439-0.176,1.104-0.371,2.322-0.429C101.264,4.769,101.652,4.759,104.99,4.759 M104.99,2.505c-3.396,0-3.815,0.01-5.152,0.078
		c-1.326,0.059-2.234,0.273-3.023,0.576C95.994,3.481,95.292,3.9,94.6,4.603c-0.69,0.703-1.123,1.386-1.445,2.215
		c-0.313,0.79-0.518,1.697-0.572,3.035c-0.07,1.327-0.08,1.746-0.08,5.142s0.01,3.815,0.078,5.153
		c0.061,1.327,0.271,2.234,0.574,3.036c0.32,0.819,0.74,1.522,1.443,2.215c0.691,0.692,1.396,1.122,2.215,1.442
		c0.791,0.313,1.699,0.519,3.035,0.576c1.338,0.059,1.756,0.079,5.15,0.079s3.814-0.01,5.15-0.079
		c1.328-0.058,2.232-0.271,3.035-0.576c0.818-0.32,1.521-0.741,2.215-1.442c0.691-0.692,1.123-1.396,1.443-2.215
		c0.313-0.792,0.52-1.697,0.574-3.036c0.063-1.338,0.078-1.757,0.078-5.153s-0.012-3.815-0.078-5.151
		c-0.059-1.327-0.271-2.234-0.574-3.036c-0.32-0.819-0.74-1.522-1.443-2.215c-0.701-0.693-1.402-1.112-2.232-1.435
		c-0.791-0.313-1.695-0.518-3.035-0.576C108.805,2.515,108.387,2.505,104.99,2.505z M104.99,8.584c-3.543,0-6.411,2.869-6.411,6.41
		c0,3.543,2.868,6.411,6.411,6.411c3.541,0,6.412-2.868,6.412-6.411C111.402,11.452,108.531,8.584,104.99,8.584z M104.99,19.162
		c-2.303,0-4.166-1.864-4.166-4.167c0-2.303,1.863-4.167,4.166-4.167s4.166,1.864,4.166,4.167
		C109.156,17.298,107.293,19.162,104.99,19.162z M113.158,8.331c0,0.829-0.674,1.502-1.502,1.502c-0.83,0-1.494-0.674-1.494-1.502
		c0-0.83,0.674-1.503,1.503-1.503S113.158,7.501,113.158,8.331z"/>
</g>
<path fill="#444E52" stroke="#FFFFFF" stroke-width="1.4" stroke-miterlimit="10" d="M5.026,5.637h7.236
	c0,0,1.135-0.256,1.135,1.134s-0.965,1.193-0.965,1.193L5.225,7.973c0,0-0.398-0.095-0.398,0.33c0,0.426,0,16.404,0,16.404
	s-0.056,0.48,0.483,0.48c0.538,0,16.26,0,16.26,0s0.48,0.198,0.48-0.482c0-0.68,0-7.235,0-7.235s-0.227-0.908,1.163-0.908
	c1.392,0,1.106,0.964,1.106,0.964l0.024,7.688c0,0-0.193,2.273-2.237,2.273c-2.043,0-17.283,0-17.283,0S2.5,27.517,2.5,24.99
	c0-2.527,0-16.971,0-16.971S2.5,5.637,5.026,5.637z"/>
<path fill="#444E52" stroke="#FFFFFF" stroke-width="1.6" stroke-miterlimit="10" d="M9.026,19.059L22.249,5.892l-2.384-2.383
	c0,0-0.537-0.993,0.513-0.993c1.05,0,6.186,0,6.186,0S27.5,2.43,27.5,3.282c0,0.851,0,6.271,0,6.271s-0.271,1.377-1.22,0.427
	c-0.951-0.951-2.186-2.186-2.186-2.186L10.843,21.072c0,0-0.355,0.441-0.796,0c-0.439-0.439-1.191-1.104-1.191-1.104
	S8.558,19.528,9.026,19.059z"/>
<g id="レイヤー_2_1_">
	<g id="Image">
		<path fill="none" stroke="#444D52" stroke-miterlimit="10" d="M40.363,25.158c9.439,0,14.594-7.818,14.594-14.594
			c0-0.222-0.004-0.443-0.015-0.663c1.004-0.726,1.871-1.625,2.559-2.657c-0.935,0.416-1.929,0.688-2.945,0.808
			c1.071-0.642,1.873-1.649,2.256-2.837c-1.007,0.597-2.108,1.018-3.257,1.245c-1.943-2.066-5.192-2.166-7.258-0.223
			c-1.332,1.253-1.898,3.121-1.483,4.904c-4.125-0.208-7.968-2.157-10.572-5.362c-1.363,2.344-0.667,5.343,1.587,6.848
			c-0.815-0.025-1.611-0.245-2.322-0.642c0,0.022,0,0.044,0,0.065c0,2.443,1.721,4.545,4.115,5.03
			c-0.755,0.205-1.548,0.235-2.317,0.087c0.671,2.089,2.597,3.521,4.792,3.563c-1.816,1.428-4.06,2.202-6.37,2.2
			c-0.409-0.002-0.819-0.026-1.225-0.075c2.346,1.506,5.076,2.304,7.863,2.301"/>
	</g>
</g>
<g id="楕円形_2">
	<circle fill="none" cx="135" cy="15" r="12.5"/>
	<circle fill="none" stroke="#FFFFFF" stroke-width="1.5" cx="135" cy="15" r="11.563"/>
</g>
<g id="グループ_1" transform="translate(-172.97 -1841.97)">
	<line id="線_162" fill="none" stroke="#FFFFFF" stroke-width="1.5" x1="350.47" y1="1844.47" x2="325.47" y2="1869.469"/>
	<line id="線_163" fill="none" stroke="#FFFFFF" stroke-width="1.5" x1="325.47" y1="1844.47" x2="350.47" y2="1869.469"/>
</g>
<path id="合体_4" fill="#A6A6A5" d="M9.03,50.744l3.183-4.414l-4.364-3.023l1.048-1.738l2.648,0.76l6.61-7.283l-0.688-1.443
	l0.955-1.102l6.273,4.42l-0.841,1.106l-1.342,0.013l-4.202,8.652l1.087,2.209l-1.339,1.488l-4.373-3.035l-3.026,4.527
	c0,0-4.273,5.506-5.355,5.619C5.383,56.518,9.03,50.744,9.03,50.744z"/>
<path id="合体_4_2_" fill="#4ED2E7" d="M39.032,110.986l3.183-4.414l-4.364-3.023l1.048-1.738l2.648,0.762l6.61-7.283
	l-0.688-1.441l0.955-1.104l6.273,4.42l-0.841,1.105l-1.342,0.014l-4.202,8.65l1.087,2.209l-1.339,1.488l-4.373-3.035l-3.026,4.527
	c0,0-4.273,5.506-5.355,5.619C35.385,116.76,39.032,110.986,39.032,110.986z"/>
<path id="合体_4_1_" fill="#FFFFFF" d="M159.029,50.744l3.184-4.414l-4.363-3.023l1.047-1.738l2.648,0.76l6.609-7.283
	l-0.688-1.443l0.955-1.102l6.272,4.42l-0.842,1.106l-1.344,0.013l-4.199,8.652l1.086,2.209l-1.338,1.488l-4.373-3.035l-3.025,4.527
	c0,0-4.271,5.506-5.354,5.619C155.383,56.518,159.029,50.744,159.029,50.744z"/>
<g>
	<path id="パス_2" fill="#A6A6A5" d="M63.502,47.179v8.027c0.328,0.71,0.918,1.267,1.647,1.553c0.877,0.165,1.777,0.165,2.654,0
		V45.813h-2.387C64.599,45.94,63.89,46.447,63.502,47.179z"/>
	<path id="パス_3" fill="#A6A6A5" d="M70.993,44.92c0,0,2.48-0.383,3.1-5.455c0.62-5.073,1.768-7.369,3.01-7.082
		c1.24,0.285,1.767,2.3,1.855,4.309c0.009,1.484-0.158,2.964-0.5,4.408c0,0,4.566,0.092,5.271,0.092c0.707,0,3.01,1.148,2.748,3.063
		c-0.264,1.913-2.211,9.374-2.211,9.374s-0.976,2.777-2.921,3.063c-1.944,0.285-10.358,0-10.358,0V44.92H70.993z"/>
</g>
<g>
	<path id="パス_2_2_" fill="#4ED2E7" d="M63.502,107.801v8.026c0.328,0.71,0.918,1.267,1.647,1.553
		c0.877,0.165,1.777,0.165,2.654,0v-10.946h-2.387C64.599,106.561,63.89,107.068,63.502,107.801z"/>
	<path id="パス_3_2_" fill="#4ED2E7" d="M70.993,105.541c0,0,2.48-0.383,3.1-5.455c0.62-5.072,1.768-7.369,3.01-7.082
		c1.24,0.285,1.767,2.301,1.855,4.309c0.009,1.484-0.158,2.965-0.5,4.408c0,0,4.566,0.092,5.271,0.092
		c0.707,0,3.01,1.148,2.748,3.063c-0.264,1.913-2.211,9.374-2.211,9.374s-0.976,2.777-2.921,3.063c-1.944,0.285-10.358,0-10.358,0
		v-11.771L70.993,105.541L70.993,105.541z"/>
</g>
<g>
	<path id="パス_2_1_" fill="#FFFFFF" d="M93.502,47.559v8.027c0.328,0.709,0.92,1.266,1.648,1.553
		c0.877,0.164,1.771,0.164,2.648,0V46.191h-2.387C94.6,46.32,93.891,46.826,93.502,47.559z"/>
	<path id="パス_3_1_" fill="#FFFFFF" d="M100.992,45.3c0,0,2.48-0.383,3.1-5.456c0.621-5.072,1.768-7.368,3.01-7.082
		c1.24,0.286,1.771,2.301,1.855,4.309c0.01,1.484-0.158,2.965-0.5,4.408c0,0,4.566,0.092,5.271,0.092
		c0.707,0,3.01,1.149,2.748,3.063c-0.268,1.914-2.211,9.375-2.211,9.375s-0.979,2.777-2.92,3.063c-1.945,0.286-10.357,0-10.357,0
		V45.3H100.992z"/>
</g>
<path id="合体_7" fill="none" stroke="#575E65" d="M38.986,50.745l3.199-4.409l-4.408-3.041l1.055-1.738l2.67,0.766l6.646-7.275
	l-0.699-1.449l0.967-1.098l6.339,4.44l-0.847,1.108l-1.354,0.009l-4.215,8.653l1.098,2.217l-1.345,1.482l-4.418-3.05l-3.041,4.524
	c0,0-4.298,5.505-5.39,5.615C35.328,56.518,38.986,50.745,38.986,50.745z"/>
<g>
	<circle id="楕円形_5" fill="#575E65" cx="15" cy="75" r="7.328"/>
	<g id="楕円形_6">
		<circle fill="none" cx="15" cy="75" r="12.5"/>
		<circle fill="none" stroke="#575E65" cx="15" cy="75" r="12.068"/>
	</g>
</g>
<g>
	<circle id="楕円形_5_1_" fill="#FF5252" cx="105" cy="104.959" r="7.328"/>
	<g id="楕円形_6_1_">
		<circle fill="none" cx="105" cy="104.959" r="12.5"/>
		<circle fill="none" stroke="#FF5252" cx="105" cy="104.959" r="12.068"/>
	</g>
</g>
<g>
	<text transform="matrix(1 0 0 1 62.4131 75.9893)" fill="#575E65" font-family="'YuGothic-Medium'" font-size="15.6804">あ</text>
	<text transform="matrix(1 0 0 1 77.2217 87.3145)" fill="#575E65" font-family="'YuGothic-Medium'" font-size="15.6804">A</text>
</g>
<path id="前面オブジェクトで型抜き_4" fill="#FFFFFF" d="M135.242,51.946c-1.619-0.01-3.229-0.275-4.766-0.786
	c-1.33-0.439-2.611-1.021-3.817-1.73c-1.238-0.713-2.397-1.557-3.455-2.517c-0.382-0.297-0.634-0.729-0.703-1.208
	c-0.019-0.63,0.237-1.237,0.703-1.663c1.315-1.333,2.849-2.433,4.53-3.256c1.104-0.564,2.262-1.017,3.455-1.349
	c1.283-0.358,2.604-0.543,3.938-0.55h0.113c2.646,0.044,5.229,0.786,7.494,2.148c1.563,0.93,3.006,2.054,4.287,3.342
	c0.326,0.334,0.498,0.789,0.475,1.256c-0.047,0.327-0.219,0.624-0.475,0.833c-1,1.038-2.115,1.958-3.326,2.743
	c-1.164,0.771-2.416,1.402-3.729,1.883C138.455,51.649,136.855,51.938,135.242,51.946z M134.82,40.519
	c-1.321-0.002-2.588,0.533-3.51,1.48c-1.938,1.989-1.938,5.161,0,7.15c1.889,1.938,4.986,1.978,6.928,0.091
	c0.031-0.03,0.062-0.061,0.092-0.091c1.938-1.989,1.938-5.161,0-7.15C137.409,41.052,136.143,40.517,134.82,40.519L134.82,40.519z
	 M134.82,47.691c-1.172,0.022-2.139-0.909-2.159-2.079c-0.021-1.172,0.909-2.14,2.081-2.16c1.171-0.021,2.138,0.91,2.158,2.08
	c0.002,0.014,0.002,0.027,0.002,0.04c0.009,1.159-0.922,2.108-2.082,2.121V47.691z"/>
<text transform="matrix(1 0 0 1 38.3477 84.7197)" fill="#575E65" font-family="'YuGothic-Medium'" font-size="25.4938">?</text>
<g id="Layer_1">
	<path id="パス_1" fill="#FFFFFF" d="M117.251,68.943c-0.289-1.082-1.132-1.928-2.21-2.223c-1.956-0.527-9.77-0.527-9.77-0.527
		s-7.813,0-9.771,0.527c-1.079,0.297-1.918,1.143-2.207,2.223c-0.357,1.998-0.535,4.023-0.521,6.057
		c-0.015,2.029,0.162,4.059,0.521,6.057c0.289,1.08,1.128,1.926,2.207,2.223c1.953,0.527,9.768,0.527,9.768,0.527
		s7.813,0,9.768-0.527c1.082-0.295,1.923-1.143,2.212-2.227c0.36-1.996,0.537-4.023,0.524-6.053
		C117.785,72.971,117.609,70.941,117.251,68.943z M102.721,78.719v-7.436l6.53,3.717L102.721,78.719z"/>
</g>
<g id="グループ_80" transform="translate(-1643.8 -1287.502)">
	<path id="パス_24" fill="#FFFFFF" d="M1766.301,1356.645v8.9c0,0-0.06,3.755,4.188,3.778c4.25,0.021,12.586,0,12.586,0
		s1.015-0.091,1.015-1.628v-7.153c0,0,0.097-4.883-4.84-4.883h-11.947c-0.519-0.034-0.967,0.354-1.001,0.876
		C1766.3,1356.571,1766.299,1356.607,1766.301,1356.645z"/>
	<path id="パス_25" fill="#FFFFFF" d="M1784.906,1359.989v5.054l5.572,4.085c0,0,0.756,0.875,0.803-0.875
		c0.045-1.748,0-12.063,0-12.063s-0.021-0.994-1.299,0C1788.706,1357.184,1784.906,1359.989,1784.906,1359.989z"/>
</g>
<g id="グループ_80_1_" transform="translate(-1643.8 -1287.502)">
	<path id="パス_24_1_" fill="#A6A6A5" d="M1646.301,1386.895v8.9c0,0-0.06,3.755,4.188,3.778c4.25,0.021,12.586,0,12.586,0
		s1.015-0.091,1.015-1.628v-7.153c0,0,0.096-4.883-4.84-4.883h-11.947c-0.519-0.034-0.967,0.354-1.001,0.876
		C1646.3,1386.821,1646.299,1386.857,1646.301,1386.895z"/>
	<path id="パス_25_1_" fill="#A6A6A5" d="M1664.906,1390.239v5.054l5.571,4.085c0,0,0.757,0.875,0.804-0.875
		c0.045-1.748,0-12.063,0-12.063s-0.022-0.994-1.299,0C1668.706,1387.434,1664.906,1390.239,1664.906,1390.239z"/>
</g>
<g>
	<circle fill="#575F65" cx="155.686" cy="68.988" r="2"/>
	<circle fill="#575F65" cx="155.686" cy="75.988" r="2"/>
	<circle fill="#575F65" cx="155.686" cy="82.988" r="2"/>
	<rect x="161.313" y="67.988" fill="#575F65" width="15" height="2"/>
	<rect x="161.313" y="74.988" fill="#575F65" width="15" height="2"/>
	<rect x="161.313" y="81.988" fill="#575F65" width="15" height="2"/>
</g>
<polyline fill="none" stroke="#575F65" stroke-width="3" stroke-miterlimit="10" points="129.973,114.801 140.027,105.139 
	129.973,95.791 "/>
<g id="楕円形_62">
	<circle fill="none" cx="165" cy="104.959" r="12.5"/>
	<circle fill="none" stroke="#C3C3C3" stroke-width="2.4" cx="165" cy="104.959" r="11.3"/>
</g>
<path id="パス_181" fill="#C3C3C3" stroke="#C3C3C3" d="M164.328,107.559c0-0.682-0.294-8.6-0.294-8.6s0-0.611,0.453-0.611h1.269
	c0.288-0.049,0.562,0.146,0.61,0.435c0.01,0.059,0.01,0.118,0,0.177c-0.022,0.7-0.431,8.6-0.431,8.6s-0.022,0.646-0.43,0.611
	c-0.256-0.02-0.514-0.02-0.77,0C164.736,108.17,164.328,108.242,164.328,107.559z"/>
<g id="楕円形_63" transform="translate(11 17)">
	<circle fill="#C3C3C3" cx="154" cy="93.959" r="1.5"/>
	<circle fill="none" stroke="#C3C3C3" cx="154" cy="93.959" r="1"/>
</g>
</svg>
