<svg xmlns="http://www.w3.org/2000/svg" width="32.472" height="39.49" viewBox="0 0 32.472 39.49">
  <g id="レイヤー_2" data-name="レイヤー 2" opacity="0.75">
    <g id="レイヤー_1" data-name="レイヤー 1">
      <path id="パス_61" data-name="パス 61" d="M11.87,0H23.74c9.08,0,8.73,7.66,8.73,7.66V31.22c0,8-7.51,8.27-7.51,8.27H7.16c-7,0-7.16-6.76-7.16-6.76V12Zm.7,2.42V8.18s-.7,4-4.37,4H2.44V32.73s.35,4.08,3.84,4.08h18.5s5.07.92,5.07-4.08V7.14S30,2.42,24.78,2.42Z" fill="#404040"/>
      <path id="パス_62" data-name="パス 62" d="M7.84,18.29H10.4a.68.68,0,1,1,0,1.36H7.08a.75.75,0,0,1-.77-.74V14.47a.75.75,0,0,1,.77-.74H10.4a.67.67,0,0,1,.65.68.66.66,0,0,1-.65.68H7.84V16h2.1a.68.68,0,0,1,0,1.36H7.84Z" fill="#404040"/>
      <path id="パス_63" data-name="パス 63" d="M14.71,19.73a.9.9,0,0,1-.78-.46l-.5-.66-.54.75a.83.83,0,0,1-.71.37.72.72,0,0,1-.76-.7.87.87,0,0,1,.36-.63l.72-.8-.75-.83a.69.69,0,0,1-.24-.51.71.71,0,0,1,.74-.7.87.87,0,0,1,.71.38l.47.66.49-.64a.84.84,0,0,1,.7-.4.69.69,0,0,1,.72.67.59.59,0,0,1-.21.46l-.78.81.88,1a.74.74,0,0,1,.24.52.73.73,0,0,1-.76.71Z" fill="#404040"/>
      <path id="パス_64" data-name="パス 64" d="M19.05,17a1.18,1.18,0,0,1-.43-.11,1.12,1.12,0,0,0-.43-.1.87.87,0,0,0-.64.24,1.044,1.044,0,0,0-.01,1.32.8.8,0,0,0,.65.26,1.44,1.44,0,0,0,.46-.08,1.06,1.06,0,0,1,.43-.12.57.57,0,0,1,.56.57c0,.34-.27.54-.72.68a2.54,2.54,0,0,1-.78.11,2.28,2.28,0,0,1-1.75-.66,2.2,2.2,0,0,1-.09-2.7,2.54,2.54,0,0,1,2.79-.62c.34.15.53.34.53.65a.57.57,0,0,1-.57.56Z" fill="#404040"/>
      <path id="パス_65" data-name="パス 65" d="M23.94,19c0,.29-.19.48-.58.62a3,3,0,0,1-1.07.15,2.1,2.1,0,0,1-1.59-3.63,2.07,2.07,0,0,1,1.47-.53,2,2,0,0,1,1.44.52,1.68,1.68,0,0,1,.5,1.22.64.64,0,0,1-.68.71H21.56a.78.78,0,0,0,.23.43.84.84,0,0,0,.59.2,1.67,1.67,0,0,0,.52-.08,1.55,1.55,0,0,1,.52-.16.53.53,0,0,1,.52.55Zm-1.2-1.79a.57.57,0,0,0-.14-.35.51.51,0,0,0-.43-.18.65.65,0,0,0-.45.16.7.7,0,0,0-.16.37Z" fill="#404040"/>
      <path id="パス_66" data-name="パス 66" d="M24.88,14.35a.7.7,0,0,1,1.4,0v4.71a.7.7,0,1,1-1.4,0Z" fill="#404040"/>
      <rect id="長方形_170" data-name="長方形 170" width="20" height="10" rx="0.25" transform="translate(6.2 22.73)" fill="none" stroke="#404040" stroke-miterlimit="10" stroke-width="1"/>
      <line id="線_62" data-name="線 62" x2="0.03" y2="10" transform="translate(16.2 22.73)" fill="none" stroke="#404040" stroke-miterlimit="10" stroke-width="1"/>
      <line id="線_63" data-name="線 63" x2="20" transform="translate(6.2 27.73)" fill="none" stroke="#404040" stroke-miterlimit="10" stroke-width="1"/>
    </g>
  </g>
</svg>
