<svg id="レイヤー_1" data-name="レイヤー 1" xmlns="http://www.w3.org/2000/svg" width="23.427" height="28.491" viewBox="0 0 23.427 28.491">
  <path id="パス_37" data-name="パス 37" d="M8.564,0h8.564c6.551,0,6.3,5.526,6.3,5.526v17a5.657,5.657,0,0,1-5.418,5.967H5.166A4.968,4.968,0,0,1,0,23.614V8.658Zm.505,1.746V5.9S8.564,8.787,5.916,8.787H1.76V23.614s.253,2.944,2.77,2.944H17.878s3.658.664,3.658-2.944V5.151a3.335,3.335,0,0,0-3.658-3.405Z" fill="#404040"/>
  <path id="パス_38" data-name="パス 38" d="M8.355,18.717a.541.541,0,1,1,0,1.082H6.529v.721H8.052a.541.541,0,1,1,0,1.082H6.529v1.306a.613.613,0,0,1-1.219,0V19.3a.606.606,0,0,1,.613-.592Z" transform="translate(-1.479 -5.211)" fill="#404040"/>
  <path id="パス_39" data-name="パス 39" d="M11.189,21.158a1.912,1.912,0,0,1,2.388,0,1.681,1.681,0,0,1,0,2.482,1.912,1.912,0,0,1-2.388,0,1.681,1.681,0,0,1,0-2.482Zm.721,1.811a.584.584,0,0,0,.433.18.613.613,0,0,0,.44-.18.866.866,0,0,0,.2-.57.837.837,0,0,0-.2-.563.592.592,0,0,0-.44-.188.563.563,0,0,0-.433.188.837.837,0,0,0-.2.563.866.866,0,0,0,.238.57Z" transform="translate(-2.964 -5.777)" fill="#404040"/>
  <path id="パス_40" data-name="パス 40" d="M18.761,20.862a.563.563,0,0,1,.31.491.483.483,0,0,1-.483.505.5.5,0,0,1-.31-.094A.462.462,0,0,0,18,21.678a.4.4,0,0,0-.354.166,1.1,1.1,0,0,0-.152.642v1.032a.563.563,0,0,1-1.118,0V21.281a.556.556,0,0,1,.563-.541.563.563,0,0,1,.519.354h0a1.443,1.443,0,0,1,.245-.216.887.887,0,0,1,.483-.137A1.241,1.241,0,0,1,18.761,20.862Z" transform="translate(-4.562 -5.777)" fill="#404040"/>
  <path id="パス_41" data-name="パス 41" d="M21.253,20.75a.563.563,0,0,1,.483.274,1.154,1.154,0,0,1,.231-.152,1.306,1.306,0,0,1,.548-.123,1.566,1.566,0,0,1,.548.094,1.046,1.046,0,0,1,.411.267,1.753,1.753,0,0,1,.433-.253,1.522,1.522,0,0,1,.577-.108,1.342,1.342,0,0,1,.916.317,1.277,1.277,0,0,1,.346.974v1.486a.563.563,0,0,1-1.118,0V22.294a.967.967,0,0,0-.094-.483.339.339,0,0,0-.317-.152.354.354,0,0,0-.339.209,1.443,1.443,0,0,0-.1.62v1.039a.563.563,0,0,1-1.118,0V22.294a.967.967,0,0,0-.094-.483.339.339,0,0,0-.317-.152.361.361,0,0,0-.339.209,1.1,1.1,0,0,0-.1.512v1.14a.563.563,0,0,1-1.118,0V21.3A.556.556,0,0,1,21.253,20.75Z" transform="translate(-5.763 -5.779)" fill="#404040"/>
</svg>
