<svg xmlns="http://www.w3.org/2000/svg" viewBox="0 0 32.47 39.49"><defs><style>.cls-1{fill:#e4a440;}</style></defs><g id="レイヤー_2" data-name="レイヤー 2"><g id="レイヤー_1-2" data-name="レイヤー 1"><path class="cls-1" d="M11.87,0H23.74c9.08,0,8.73,7.66,8.73,7.66V31.22c0,8-7.51,8.27-7.51,8.27H7.16c-7,0-7.16-6.76-7.16-6.76V12Zm.7,2.42V8.18s-.7,4-4.37,4H2.44V32.73s.35,4.08,3.84,4.08h18.5s5.07.92,5.07-4.08V7.14S30,2.42,24.78,2.42Z"/><path class="cls-1" d="M9.53,18.72a.75.75,0,0,1,0,1.5H7v1H9.11a.75.75,0,0,1,0,1.5H7v1.81a.85.85,0,0,1-1.69,0v-5a.84.84,0,0,1,.85-.82Z"/><path class="cls-1" d="M11.4,21.32a2.65,2.65,0,0,1,3.31,0,2.33,2.33,0,0,1,0,3.44,2.65,2.65,0,0,1-3.31,0,2.33,2.33,0,0,1,0-3.44Zm1,2.51a.81.81,0,0,0,.6.25.85.85,0,0,0,.61-.25,1.2,1.2,0,0,0,.28-.79,1.16,1.16,0,0,0-.28-.78.82.82,0,0,0-.61-.26.78.78,0,0,0-.6.26,1.16,1.16,0,0,0-.28.78A1.2,1.2,0,0,0,12.45,23.83Z"/><path class="cls-1" d="M19.68,20.91a.78.78,0,0,1,.43.68.67.67,0,0,1-.67.7.69.69,0,0,1-.43-.13.64.64,0,0,0-.38-.12.56.56,0,0,0-.49.23,1.53,1.53,0,0,0-.21.89v1.43a.78.78,0,0,1-1.55,0v-3.1a.77.77,0,0,1,.78-.75.78.78,0,0,1,.72.49h0a2,2,0,0,1,.34-.3,1.23,1.23,0,0,1,.67-.19A1.72,1.72,0,0,1,19.68,20.91Z"/><path class="cls-1" d="M21.47,20.75a.78.78,0,0,1,.67.38,1.6,1.6,0,0,1,.32-.21,1.81,1.81,0,0,1,.76-.17,2.17,2.17,0,0,1,.76.13,1.45,1.45,0,0,1,.57.37,2.43,2.43,0,0,1,.6-.35,2.11,2.11,0,0,1,.8-.15,1.86,1.86,0,0,1,1.27.44,1.77,1.77,0,0,1,.48,1.35V24.6a.78.78,0,0,1-1.55,0V22.89a1.34,1.34,0,0,0-.13-.67.47.47,0,0,0-.44-.21.49.49,0,0,0-.47.29,2,2,0,0,0-.14.86V24.6a.78.78,0,0,1-1.55,0V22.89a1.34,1.34,0,0,0-.13-.67.47.47,0,0,0-.44-.21.5.5,0,0,0-.47.29,1.53,1.53,0,0,0-.14.71v1.58a.78.78,0,0,1-1.55,0V21.51A.77.77,0,0,1,21.47,20.75Z"/></g></g></svg>