<?xml version="1.0" encoding="utf-8"?>
<!-- Generator: Adobe Illustrator 16.0.0, SVG Export Plug-In . SVG Version: 6.00 Build 0)  -->
<!DOCTYPE svg PUBLIC "-//W3C//DTD SVG 1.1//EN" "http://www.w3.org/Graphics/SVG/1.1/DTD/svg11.dtd">
<svg version="1.1" id="レイヤー_1" xmlns="http://www.w3.org/2000/svg" xmlns:xlink="http://www.w3.org/1999/xlink" x="0px"
	 y="0px" width="51.02px" height="39.69px" viewBox="0 0 51.02 39.69" enable-background="new 0 0 51.02 39.69"
	 xml:space="preserve">
<g>
	<path fill="#E4A440" d="M9.209,38.69c0,0-1.115-7.512,4.753-9.098c5.869-1.584,6.749-2.723,6.866-4.719
		c0.117-1.996-0.939-2.784-1.937-4.813s-2.523-5.139-2.523-7.956c0-2.816,1.291-10.445,9.096-10.445s8.954,7.101,8.954,10.388
		c0,3.286-1.735,6.748-2.498,8.45c-0.764,1.702-4.401,4.987,1.818,7.981c6.456,1.877,7.453,3.99,7.923,5.986
		c0.47,1.994,0.235,4.225,0.235,4.225H9.209z"/>
	<g>
		<path fill="#E4A440" d="M49.995,35.144c-0.395-1.674-1.231-3.445-6.648-5.021c-5.22-2.512-2.166-5.27-1.526-6.697
			c0.64-1.429,2.096-4.333,2.096-7.092c0-2.757-0.964-8.716-7.513-8.716c-0.54,0-1.039,0.048-1.508,0.129
			c0.397,1.385,0.579,2.855,0.579,4.302c0,3.215-1.478,6.448-2.361,8.379c-0.083,0.182-0.159,0.35-0.229,0.504
			c-0.155,0.344-0.379,0.7-0.616,1.078c-0.367,0.585-0.766,1.219-0.944,1.854c0.579,0.986,1.093,1.637,1.183,2.662
			c0.431,0.328,0.969,0.65,1.613,0.965c6.226,1.826,7.93,4.014,8.57,6.732c0.451,1.916,0.311,3.977,0.268,4.469h7.233
			C50.191,38.69,50.389,36.819,49.995,35.144z"/>
	</g>
	<g>
		<path fill="#E4A440" d="M1.024,35.144c0.394-1.674,1.231-3.445,6.648-5.021c5.22-2.512,2.167-5.27,1.526-6.697
			c-0.64-1.429-2.096-4.333-2.096-7.092c0-2.757,0.963-8.716,7.513-8.716c0.541,0,1.04,0.048,1.508,0.129
			c-0.397,1.385-0.579,2.855-0.579,4.302c0,3.215,1.479,6.448,2.362,8.379c0.083,0.182,0.16,0.35,0.229,0.504
			c0.154,0.344,0.378,0.7,0.615,1.078c0.368,0.585,0.767,1.219,0.945,1.854c-0.579,0.986-1.093,1.637-1.182,2.662
			c-0.431,0.328-0.969,0.65-1.615,0.965c-6.225,1.826-7.93,4.014-8.57,6.732c-0.45,1.916-0.31,3.977-0.267,4.469H0.828
			C0.828,38.69,0.631,36.819,1.024,35.144z"/>
	</g>
</g>
</svg>
