<svg id="レイヤー_2" data-name="レイヤー 2" xmlns="http://www.w3.org/2000/svg" width="32.472" height="39.49" viewBox="0 0 32.472 39.49">
  <g id="レイヤー_1" data-name="レイヤー 1">
    <path id="パス_57" data-name="パス 57" d="M11.87,0H23.74c9.08,0,8.73,7.66,8.73,7.66V31.22c0,8-7.51,8.27-7.51,8.27H7.16c-7,0-7.16-6.76-7.16-6.76V12Zm.7,2.42V8.18s-.7,4-4.37,4H2.44V32.73s.35,4.08,3.84,4.08h18.5s5.07.92,5.07-4.08V7.14S30,2.42,24.78,2.42Z" fill="#404040"/>
    <path id="パス_58" data-name="パス 58" d="M8,19.47s4.31-.35,4.31,2.33-3.73,2.33-3.73,2.33v1.8c0,.52-.06.82-.87.82s-.76-1.05-.76-1.05V20.34C6.92,19.41,8,19.47,8,19.47Zm.47,1.45v1.87s2.21.23,2.21-.94-2.24-.93-2.24-.93Z" fill="#404040"/>
    <path id="パス_59" data-name="パス 59" d="M14.37,19.46h1.92c.87,0,2.62.3,2.62,3.64a3.9,3.9,0,0,1-2,3.65H14.37c-.52,0-.81-.7-.81-.7V19.74C13.56,19.32,14.37,19.46,14.37,19.46Zm.7,1.45v4.32a2,2,0,0,0,2.27-2.16,2,2,0,0,0-2.27-2.16Z" fill="#404040"/>
    <path id="パス_60" data-name="パス 60" d="M20.25,20.23v5.64s.17.88.7.88a.84.84,0,0,0,.93-.94V24h1.68a.84.84,0,0,0,.94-.85c0-.61-.53-.54-.94-.6s-1.74-.06-1.74-.06V20.9h2.33s1,0,1-.68-.4-.8-.93-.8H21.41S20.25,19.59,20.25,20.23Z" fill="#404040"/>
  </g>
</svg>
