<svg xmlns="http://www.w3.org/2000/svg" viewBox="0 0 32.47 39.49"><defs><style>.cls-1{fill:#e4a440;}</style></defs><g id="レイヤー_2" data-name="レイヤー 2"><g id="レイヤー_1-2" data-name="レイヤー 1"><path class="cls-1" d="M11.87,0H23.74c9.08,0,8.73,7.66,8.73,7.66V31.22c0,8-7.51,8.27-7.51,8.27H7.16c-7,0-7.16-6.76-7.16-6.76V12Zm.7,2.42V8.18s-.7,4-4.37,4H2.44V32.73s.35,4.08,3.84,4.08h18.5s5.07.92,5.07-4.08V7.14S30,2.42,24.78,2.42Z"/><path class="cls-1" d="M26.15,22.27a.76.76,0,0,1-.75.75H10.9a.76.76,0,0,1-.75-.75h0a.76.76,0,0,1,.75-.75H25.4a.76.76,0,0,1,.75.75Z"/><path class="cls-1" d="M26.15,27.52a.76.76,0,0,1-.75.75H6.9a.76.76,0,0,1-.75-.75h0a.76.76,0,0,1,.75-.75H25.4a.76.76,0,0,1,.75.75Z"/><path class="cls-1" d="M26.15,32.77a.76.76,0,0,1-.75.75H6.9a.76.76,0,0,1-.75-.75h0A.76.76,0,0,1,6.9,32H25.4a.76.76,0,0,1,.75.75Z"/><path class="cls-1" d="M12.32,14.4a.75.75,0,0,1,1.44.22.82.82,0,0,1-.06.27l-1.2,4a1,1,0,0,1-1,.74,1,1,0,0,1-1-.74l-.74-2.22L9,18.86a1,1,0,0,1-1,.74,1,1,0,0,1-1-.74l-1.24-4a.85.85,0,0,1,0-.23.71.71,0,0,1,.75-.7.66.66,0,0,1,.68.5L8,17.78,9,14.47a.74.74,0,0,1,.78-.53.69.69,0,0,1,.74.54l1,3.3Z"/><path class="cls-1" d="M14.76,16.2a2.09,2.09,0,0,1,1.4-.49,2.13,2.13,0,0,1,1.4.49,2,2,0,0,1,0,2.91,2.13,2.13,0,0,1-1.4.49,2.09,2.09,0,0,1-1.4-.49,2,2,0,0,1,0-2.91Zm.89,2.12a.67.67,0,0,0,.51.22.69.69,0,0,0,.51-.22,1.08,1.08,0,0,0,0-1.33.69.69,0,0,0-.51-.22.67.67,0,0,0-.51.22,1,1,0,0,0,0,1.33Z"/><path class="cls-1" d="M21.75,15.86a.63.63,0,0,1,.36.57.56.56,0,0,1-.56.59.61.61,0,0,1-.36-.11.55.55,0,0,0-.32-.1.48.48,0,0,0-.42.19,1.34,1.34,0,0,0-.17.76V19a.66.66,0,0,1-.66.63A.64.64,0,0,1,19,19V16.35a.65.65,0,0,1,.65-.64.68.68,0,0,1,.62.42h0a1.32,1.32,0,0,1,.28-.25,1,1,0,0,1,.57-.17A1.36,1.36,0,0,1,21.75,15.86Z"/><path class="cls-1" d="M24.6,19.51A2.56,2.56,0,0,1,23,19.06a1.68,1.68,0,0,1-.62-1.38,2.08,2.08,0,0,1,.43-1.33,2.42,2.42,0,0,1,2-.61V14.57a.66.66,0,0,1,1.31,0v4.24a.68.68,0,0,1-.74.7Zm.24-1.09V16.85a1.88,1.88,0,0,0-.34,0,.74.74,0,0,0-.6.28.87.87,0,0,0-.17.54.68.68,0,0,0,.28.61,1.27,1.27,0,0,0,.73.16Z"/></g></g></svg>