<svg xmlns="http://www.w3.org/2000/svg" width="23.636" height="28.745" viewBox="0 0 23.636 28.745">
  <g id="レイヤー_2" data-name="レイヤー 2" opacity="0.75">
    <g id="レイヤー_1" data-name="レイヤー 1">
      <path id="パス_29" data-name="パス 29" d="M8.64,0h8.64c6.609,0,6.355,5.576,6.355,5.576V22.725a5.708,5.708,0,0,1-5.467,6.02H5.212C.116,28.745,0,23.824,0,23.824V8.735Zm.51,1.762V5.954S8.64,8.866,5.969,8.866H1.776V23.824s.255,2.97,2.8,2.97H18.038s3.69.67,3.69-2.97V5.2a3.364,3.364,0,0,0-3.69-3.436Z" fill="#404040"/>
      <path id="パス_30" data-name="パス 30" d="M21.8,22.066a.553.553,0,0,1-.546.546H10.7a.553.553,0,0,1-.546-.546h0a.553.553,0,0,1,.546-.546H21.251A.553.553,0,0,1,21.8,22.066Z" transform="translate(-2.762 -5.855)" fill="#404040"/>
      <path id="パス_31" data-name="パス 31" d="M20.708,27.316a.553.553,0,0,1-.546.546H6.7a.553.553,0,0,1-.546-.546h0A.553.553,0,0,1,6.7,26.77H20.162A.553.553,0,0,1,20.708,27.316Z" transform="translate(-1.673 -7.284)" fill="#404040"/>
      <path id="パス_32" data-name="パス 32" d="M20.708,32.56a.553.553,0,0,1-.546.546H6.7a.553.553,0,0,1-.546-.546h0A.553.553,0,0,1,6.7,32H20.162a.553.553,0,0,1,.546.546Z" transform="translate(-1.673 -8.707)" fill="#404040"/>
      <path id="パス_33" data-name="パス 33" d="M10.533,14.272a.546.546,0,0,1,1.048.16.6.6,0,0,1-.044.2l-.873,2.912a.761.761,0,0,1-1.456,0l-.539-1.616-.553,1.594a.761.761,0,0,1-1.456,0l-.9-2.912a.619.619,0,0,1,0-.167.517.517,0,0,1,.546-.51.48.48,0,0,1,.495.364l.59,2.438.728-2.409a.539.539,0,0,1,.568-.386.5.5,0,0,1,.539.393l.728,2.4Z" transform="translate(-1.565 -3.79)" fill="#404040"/>
      <path id="パス_34" data-name="パス 34" d="M14.589,16.066a1.521,1.521,0,0,1,1.019-.357,1.55,1.55,0,0,1,1.019.357,1.456,1.456,0,0,1,0,2.118,1.55,1.55,0,0,1-1.019.357,1.521,1.521,0,0,1-1.019-.357,1.456,1.456,0,0,1,0-2.118Zm.648,1.543a.488.488,0,0,0,.371.16.5.5,0,0,0,.371-.16.786.786,0,0,0,0-.968.5.5,0,0,0-.371-.16.488.488,0,0,0-.371.16.728.728,0,0,0,0,.968Z" transform="translate(-3.845 -4.274)" fill="#404040"/>
      <path id="パス_35" data-name="パス 35" d="M21,15.819a.459.459,0,0,1,.262.415.408.408,0,0,1-.408.429.444.444,0,0,1-.262-.08.4.4,0,0,0-.233-.073.349.349,0,0,0-.306.138.975.975,0,0,0-.124.553v.9a.48.48,0,0,1-.48.459A.466.466,0,0,1,19,18.1V16.176a.473.473,0,0,1,.473-.466.5.5,0,0,1,.451.306h0a.961.961,0,0,1,.2-.182.728.728,0,0,1,.415-.124.99.99,0,0,1,.459.109Z" transform="translate(-5.17 -4.275)" fill="#404040"/>
      <path id="パス_36" data-name="パス 36" d="M24,18.008a1.863,1.863,0,0,1-1.165-.328,1.223,1.223,0,0,1-.451-1,1.514,1.514,0,0,1,.313-.968,1.762,1.762,0,0,1,1.456-.444v-.852a.48.48,0,0,1,.954,0V17.5a.495.495,0,0,1-.539.51Zm.175-.793V16.072a1.368,1.368,0,0,0-.247,0,.539.539,0,0,0-.437.2.633.633,0,0,0-.124.393.5.5,0,0,0,.2.444.924.924,0,0,0,.531.116Z" transform="translate(-6.089 -3.807)" fill="#404040"/>
    </g>
  </g>
</svg>
